<mxfile host="app.diagrams.net" agent="Mozilla/5.0 (Windows NT 10.0; Win64; x64) AppleWebKit/537.36 (KHTML, like Gecko) Chrome/136.0.0.0 Safari/537.36" version="26.1.0" pages="2">
  <diagram name="Page-1" id="_6QpGD0Ergbsebda4CdT">
    <mxGraphModel>
      <root>
        <mxCell id="0" />
        <mxCell id="1" parent="0" />
      </root>
    </mxGraphModel>
  </diagram>
  <diagram id="JmgEA0bnlSYXYjTS6Lqh" name="Page-2">
    <mxGraphModel dx="1434" dy="780" grid="1" gridSize="10" guides="1" tooltips="1" connect="1" arrows="1" fold="1" page="1" pageScale="1" pageWidth="690" pageHeight="980" math="0" shadow="0">
      <root>
        <mxCell id="0" />
        <mxCell id="1" parent="0" />
        <mxCell id="qks1kaUwmpEpU4u1b0tI-18" style="edgeStyle=orthogonalEdgeStyle;rounded=0;orthogonalLoop=1;jettySize=auto;html=1;entryX=0.5;entryY=0;entryDx=0;entryDy=0;" edge="1" parent="1" source="qks1kaUwmpEpU4u1b0tI-1" target="qks1kaUwmpEpU4u1b0tI-7">
          <mxGeometry relative="1" as="geometry" />
        </mxCell>
        <mxCell id="qks1kaUwmpEpU4u1b0tI-1" value="ble_fd -- write MODEMACK\r\n&lt;div&gt;ble_fd -- read BLEACK1&lt;/div&gt;&lt;div&gt;&lt;br&gt;&lt;/div&gt;" style="rounded=0;whiteSpace=wrap;html=1;align=left;" vertex="1" parent="1">
          <mxGeometry x="40" y="205" width="180" height="60" as="geometry" />
        </mxCell>
        <mxCell id="qks1kaUwmpEpU4u1b0tI-17" style="edgeStyle=orthogonalEdgeStyle;rounded=0;orthogonalLoop=1;jettySize=auto;html=1;entryX=0.5;entryY=0;entryDx=0;entryDy=0;" edge="1" parent="1" source="qks1kaUwmpEpU4u1b0tI-2" target="qks1kaUwmpEpU4u1b0tI-1">
          <mxGeometry relative="1" as="geometry" />
        </mxCell>
        <mxCell id="qks1kaUwmpEpU4u1b0tI-2" value="&lt;div style=&quot;text-align: center;&quot;&gt;&lt;span style=&quot;background-color: transparent; color: light-dark(rgb(0, 0, 0), rgb(255, 255, 255));&quot;&gt;event_handler&lt;/span&gt;&lt;/div&gt;&lt;div&gt;&lt;div style=&quot;&quot;&gt;&lt;br&gt;&lt;/div&gt;&lt;div style=&quot;&quot;&gt;&lt;span style=&quot;background-color: transparent; color: light-dark(rgb(0, 0, 0), rgb(255, 255, 255));&quot;&gt;while(1)&lt;/span&gt;&lt;/div&gt;&lt;div style=&quot;&quot;&gt;&lt;span style=&quot;background-color: transparent; color: light-dark(rgb(0, 0, 0), rgb(255, 255, 255));&quot;&gt;- FD_ISSET(ble_evt_fd)&lt;/span&gt;&lt;/div&gt;&lt;/div&gt;" style="shape=document;whiteSpace=wrap;html=1;boundedLbl=1;align=left;" vertex="1" parent="1">
          <mxGeometry x="40" y="50" width="180" height="110" as="geometry" />
        </mxCell>
        <mxCell id="qks1kaUwmpEpU4u1b0tI-4" value="&lt;div style=&quot;text-align: center;&quot;&gt;&lt;span style=&quot;background-color: transparent; color: light-dark(rgb(0, 0, 0), rgb(255, 255, 255));&quot;&gt;interrupt_handler&lt;/span&gt;&lt;/div&gt;&lt;div&gt;&lt;div&gt;v&lt;br&gt;&lt;div&gt;input_event(type, code, value)&lt;/div&gt;&lt;/div&gt;&lt;/div&gt;" style="shape=document;whiteSpace=wrap;html=1;boundedLbl=1;align=left;" vertex="1" parent="1">
          <mxGeometry x="260" y="50" width="180" height="80" as="geometry" />
        </mxCell>
        <mxCell id="qks1kaUwmpEpU4u1b0tI-19" style="edgeStyle=orthogonalEdgeStyle;rounded=0;orthogonalLoop=1;jettySize=auto;html=1;entryX=0.5;entryY=0;entryDx=0;entryDy=0;strokeWidth=3;dashed=1;" edge="1" parent="1" source="qks1kaUwmpEpU4u1b0tI-7" target="qks1kaUwmpEpU4u1b0tI-9">
          <mxGeometry relative="1" as="geometry" />
        </mxCell>
        <mxCell id="qks1kaUwmpEpU4u1b0tI-7" value="&lt;div style=&quot;text-align: center;&quot;&gt;&lt;span style=&quot;background-color: transparent; color: light-dark(rgb(0, 0, 0), rgb(255, 255, 255));&quot;&gt;ble_handler&lt;/span&gt;&lt;/div&gt;&lt;div&gt;&lt;div style=&quot;&quot;&gt;&lt;br&gt;&lt;/div&gt;&lt;div style=&quot;&quot;&gt;&lt;span style=&quot;background-color: transparent; color: light-dark(rgb(0, 0, 0), rgb(255, 255, 255));&quot;&gt;while(1) pthread_exit()&lt;/span&gt;&lt;/div&gt;&lt;div style=&quot;&quot;&gt;&lt;span style=&quot;background-color: transparent; color: light-dark(rgb(0, 0, 0), rgb(255, 255, 255));&quot;&gt;ble_fd -- read 0xe0 / data&lt;br&gt;&lt;/span&gt;msgsnd(ble_queue)&lt;/div&gt;&lt;/div&gt;" style="shape=document;whiteSpace=wrap;html=1;boundedLbl=1;align=left;" vertex="1" parent="1">
          <mxGeometry x="270" y="260" width="180" height="110" as="geometry" />
        </mxCell>
        <mxCell id="qks1kaUwmpEpU4u1b0tI-9" value="ble_event_handler&lt;div&gt;&lt;span style=&quot;background-color: transparent; color: light-dark(rgb(0, 0, 0), rgb(255, 255, 255));&quot;&gt;&lt;br&gt;&lt;/span&gt;&lt;/div&gt;&lt;div&gt;&lt;span style=&quot;background-color: transparent; color: light-dark(rgb(0, 0, 0), rgb(255, 255, 255));&quot;&gt;while(1)&lt;/span&gt;&lt;div&gt;&lt;div style=&quot;&quot;&gt;msgrcv(ble_queue)&lt;/div&gt;&lt;/div&gt;&lt;/div&gt;&lt;div style=&quot;&quot;&gt;call_&lt;span style=&quot;background-color: transparent; color: light-dark(rgb(0, 0, 0), rgb(255, 255, 255));&quot;&gt;user_&lt;/span&gt;&lt;span style=&quot;background-color: transparent; color: light-dark(rgb(0, 0, 0), rgb(255, 255, 255));&quot;&gt;register_func()&lt;/span&gt;&lt;/div&gt;" style="shape=document;whiteSpace=wrap;html=1;boundedLbl=1;align=left;" vertex="1" parent="1">
          <mxGeometry x="40" y="340" width="180" height="145" as="geometry" />
        </mxCell>
        <mxCell id="qks1kaUwmpEpU4u1b0tI-13" value="pthread" style="text;html=1;align=center;verticalAlign=middle;resizable=0;points=[];autosize=1;strokeColor=none;fillColor=none;" vertex="1" parent="1">
          <mxGeometry x="240" y="205" width="60" height="30" as="geometry" />
        </mxCell>
        <mxCell id="qks1kaUwmpEpU4u1b0tI-16" style="edgeStyle=orthogonalEdgeStyle;rounded=0;orthogonalLoop=1;jettySize=auto;html=1;entryX=1;entryY=0.355;entryDx=0;entryDy=0;entryPerimeter=0;" edge="1" parent="1" source="qks1kaUwmpEpU4u1b0tI-4" target="qks1kaUwmpEpU4u1b0tI-2">
          <mxGeometry relative="1" as="geometry" />
        </mxCell>
      </root>
    </mxGraphModel>
  </diagram>
</mxfile>
